<svg width="267" height="250" xmlns="http://www.w3.org/2000/svg" xml:space="preserve" enable-background="new 0 0 2000 2000" version="1.1">
 <g>
  <title>Layer 1</title>
  <g id="mainImg" stroke="null">
   <rect x="7" y="-17" id="svg_2" fill="none" height="280.49999" width="249.78345" stroke="null"/>
   <g transform="matrix(0.649632 0 0 0.729519 96.7537 -21.886)" id="svg_8" x="-137.05821" y="28.28308" stroke="null">
    <svg id="svg_4" y="7.72159" x="-133.97954" height="384.5px" width="384.5px" viewBox="0 0 237 237" version="1.1" stroke="null" xmlns="http://www.w3.org/2000/svg">
     <path id="svg_9" d="m191.55,116.92l-6.58,-2.17a1.01,1 11.5 0 1 -0.69,-1.03q0.04,-0.49 -0.24,-0.97" vector-effect="non-scaling-stroke" fill="none" stroke-width="2" stroke="#868979"/>
     <path id="svg_7" d="m191.55,116.92l-6.58,-2.17a1.01,1 11.5 0 1 -0.69,-1.03q0.04,-0.49 -0.24,-0.97c-1.52,-6.15 -1.57,-10.83 -6.82,-15.98q-1.14,-1.11 -6.88,-4.6a1.07,1.06 -83.2 0 1 -0.43,-0.55c-0.79,-2.41 -0.91,-5.16 -1.83,-7.32c-12.41,-29.17 -46.92,-40.78 -74.3,-24.15c-2.44,1.49 -4.23,2.85 -7.25,3.04q-9.14,0.59 -18.26,0.86q-1.94,0.06 -0.87,-1.55q0.74,-1.1 2.16,-2.45c35.13,-33.31 90.64,-23.8 114.26,17.39q10.45,18.22 7.73,39.48z" fill="#f0a93a" stroke="null"/>
     <path id="svg_6" d="m184.04,112.75q0.28,0.48 0.24,0.97a1.01,1 11.5 0 0 0.69,1.03l6.58,2.17q5.63,4.05 9.55,9.81q0.29,0.43 1.42,3.29c1.41,3.55 5.3,1.21 7.61,1.14c15.57,-0.46 25.14,11.25 26.87,25.9l0,3c-0.45,1.76 -1.06,7.49 -3.17,7.63a0.99,0.99 0 0 1 -0.96,-0.54q-2.96,-5.86 -9.56,-6.66q-1.85,-0.22 -1.92,-2.19c-0.4,-10.92 -11.01,-18.29 -21.04,-12.46a1.01,1 58.6 0 1 -1.35,-0.33c-11.73,-18.42 -33.17,-9.58 -37.69,8.72c-0.57,2.3 0.15,5.63 -1.08,7.37a1,0.99 21.5 0 1 -0.96,0.41c-11.51,-1.62 -18.83,3.33 -22.63,13.5c-0.79,2.13 -1.6,2.76 -3.72,3.19c-1.49,0.3 -2.75,0.98 -2.05,2.62a1.02,1 82.8 0 0 0.76,0.6c3.71,0.59 6.5,-0.17 8.68,-3.45c4.09,-6.14 9.17,-10.38 16.87,-10.44q28.47,-0.23 56.93,0.11c13.26,0.16 15.74,4.51 19.8,15.94q1.29,3.63 -2.42,2.72q-5.88,-1.46 -11.44,0.3q-2.76,0.87 -4.74,0.89q-48.33,0.42 -96.66,0.23c-1.29,-0.01 -3.52,0.86 -5.22,-0.19a0.98,0.98 0 0 1 -0.47,-0.82c-0.83,-25.07 -41.76,-26.72 -42.06,0.42a1,1 0 0 1 -1.01,0.99q-22.23,-0.22 -44.64,-0.13c-6.06,0.02 -14.66,-0.91 -16.24,6.3a1.03,1.01 -10.6 0 1 -0.45,0.64q-3.1,1.9 -6.77,1.2a1,1 0 0 1 -0.81,-0.9q-0.34,-4.46 2.21,-8.06c1.56,-2.19 4.34,-3.3 5.67,-5.89q6.59,-12.89 22.19,-13.03a1.01,1 4.5 0 0 0.98,-0.83q2.47,-14.44 15.17,-19.41c5.35,-2.09 11.99,-1.75 17.79,-1.17a0.99,0.99 0 0 0 1.03,-0.63c2.87,-7.37 9.73,-10.33 16.47,-13.52a1,0.99 78.3 0 0 0.58,-0.89c0.1,-8.58 9.56,-16.28 17.31,-9.79c2.89,2.42 3.49,5.06 4.99,8.32a1.04,1 -1.1 0 0 0.55,0.51c2.26,0.89 3.49,-0.5 2.83,-2.72c-4.97,-16.58 -26.17,-16.47 -28.4,1.29q-0.35,2.82 -3.19,2.68c-10.01,-0.52 -21.19,-1.56 -30.26,2.83c-2.28,1.11 -3.31,2.82 -4.45,4.94a1.03,0.99 -80.4 0 1 -0.68,0.5c-11.62,2.38 -16.29,2.89 -19.48,15.91a1,1 0 0 1 -1.04,0.76q-10.77,-0.75 -14.6,8.56c-0.73,1.77 -2.04,2 -2.84,0.1c-7.81,-18.72 5.59,-34.53 24.44,-34.74c3.98,-0.04 6.82,1.32 9.18,-2.86c2.32,-4.13 6.13,-6.99 10.73,-8.26c3.21,-0.9 6.65,-1.37 8.86,-4.17c5.02,-6.35 8.3,-11.14 15.55,-17.47a0.98,0.97 77.6 0 0 0.3,-0.47q2.44,-8.12 3.53,-16.46q0.09,-0.71 0.81,-1.18a1,1 0 0 1 1.39,0.32l3.25,5.25q1.36,2.18 2.99,0.43q4.52,-4.85 8.26,-9.71c2.18,-2.83 3.2,-6.32 4.95,-9.56q1.19,-2.19 3.68,-2.09c3.6,0.14 7.03,0.33 10.62,0.09c5.39,-0.36 9.67,11.22 10.98,16.17a1.01,1.01 0 0 0 1.17,0.73l3.26,-0.65q2.21,-0.44 2.87,1.49l3.9,11.42a1,1 0 0 1 -0.93,1.32q-10.66,0.2 -14.22,9.5c-1.58,4.14 1.71,6.13 3.43,1.31c2.01,-5.61 6.53,-6.49 11.86,-7.34c5.54,-0.88 11.09,3.49 13.9,7.92q1.36,2.16 2.49,-0.13c2.52,-5.16 10.34,-7.09 15.45,-7.06c6.48,0.03 11.93,8.58 13.57,13.91a1.01,1.01 0 0 0 0.43,0.56q3.08,1.92 3.53,-1.71z" fill="#1c68b8" stroke="null"/>
     <path id="svg_5" d="m70.56,92.44q1.5,0.61 0.97,2.24a1.01,1 88.8 0 1 -0.59,0.62c-7.86,3.06 -12,10.86 -14.85,17.94a1.02,0.98 -87 0 1 -0.62,0.58l-11.08,3.58a1.01,1 78.8 0 1 -1.31,-0.88q-1.59,-21.61 7,-41.53q0.19,-0.44 0.42,-0.86q1.29,-2.35 1.85,0.27q1.95,9.01 9.94,14.03q2.81,1.77 8.27,4.01z" fill="#f0a93a" stroke="null"/>
    </svg>
   </g>
  </g>
 </g>

</svg>