<svg xmlns="http://www.w3.org/2000/svg" xmlns:xlink="http://www.w3.org/1999/xlink" version="1.1"
  id="logo" x="0px" y="0px" viewBox="0 0 2000 2000" enable-background="new 0 0 2000 2000"
  xml:space="preserve" style="visibility: visible;" width="2000" height="2000">
<g id="content" transform="translate(-2.738739013671875 , 0.050018310546875)">
	
		<text id="mainTitle-right" transform="matrix(1 0 0 1 925 1060.7578)" font-family="ZiYuDuDuTi_JUU2JTk4JTg2JUU0JUJCJTkxJUU1JUEyJTlG" font-size="202.8644px" style="font-family: ZiYuDuDuTi_JUU2JTk4JTg2JUU0JUJCJTkxJUU1JUEyJTlG" fill="#1b68ba">昆仑墟</text>
	<g id="mainImg"><rect width="384.5px" height="384.5px" fill="none" x="471.9" y="807.7"></rect><svg xmlns="http://www.w3.org/2000/svg" version="1.1" viewBox="0 0 237 237" width="384.5px" height="384.5px" x="471.9" y="807.7">
<path stroke="#868979" stroke-width="2.00" fill="none" stroke-linecap="butt" vector-effect="non-scaling-stroke" d="   M 191.55 116.92   L 184.97 114.75   A 1.01 1.00 11.5 0 1 184.28 113.72   Q 184.32 113.23 184.04 112.75"></path>
<path fill="#f0a93a" d="   M 191.55 116.92   L 184.97 114.75   A 1.01 1.00 11.5 0 1 184.28 113.72   Q 184.32 113.23 184.04 112.75   C 182.52 106.60 182.47 101.92 177.22 96.77   Q 176.08 95.66 170.34 92.17   A 1.07 1.06 -83.2 0 1 169.91 91.62   C 169.12 89.21 169.00 86.46 168.08 84.30   C 155.67 55.13 121.16 43.52 93.78 60.15   C 91.34 61.64 89.55 63.00 86.53 63.19   Q 77.39 63.78 68.27 64.05   Q 66.33 64.11 67.40 62.50   Q 68.14 61.40 69.56 60.05   C 104.69 26.74 160.20 36.25 183.82 77.44   Q 194.27 95.66 191.55 116.92   Z"></path>
<path fill="#1c68b8" d="   M 184.04 112.75   Q 184.32 113.23 184.28 113.72   A 1.01 1.00 11.5 0 0 184.97 114.75   L 191.55 116.92   Q 197.18 120.97 201.10 126.73   Q 201.39 127.16 202.52 130.02   C 203.93 133.57 207.82 131.23 210.13 131.16   C 225.70 130.70 235.27 142.41 237.00 157.06   L 237.00 160.06   C 236.55 161.82 235.94 167.55 233.83 167.69   A 0.99 0.99 0.0 0 1 232.87 167.15   Q 229.91 161.29 223.31 160.49   Q 221.46 160.27 221.39 158.30   C 220.99 147.38 210.38 140.01 200.35 145.84   A 1.01 1.00 58.6 0 1 199.00 145.51   C 187.27 127.09 165.83 135.93 161.31 154.23   C 160.74 156.53 161.46 159.86 160.23 161.60   A 1.00 0.99 21.5 0 1 159.27 162.01   C 147.76 160.39 140.44 165.34 136.64 175.51   C 135.85 177.64 135.04 178.27 132.92 178.70   C 131.43 179.00 130.17 179.68 130.87 181.32   A 1.02 1.00 82.8 0 0 131.63 181.92   C 135.34 182.51 138.13 181.75 140.31 178.47   C 144.40 172.33 149.48 168.09 157.18 168.03   Q 185.65 167.80 214.11 168.14   C 227.37 168.30 229.85 172.65 233.91 184.08   Q 235.20 187.71 231.49 186.80   Q 225.61 185.34 220.05 187.10   Q 217.29 187.97 215.31 187.99   Q 166.98 188.41 118.65 188.22   C 117.36 188.21 115.13 189.08 113.43 188.03   A 0.98 0.98 0.0 0 1 112.96 187.21   C 112.13 162.14 71.20 160.49 70.90 187.63   A 1.00 1.00 0.0 0 1 69.89 188.62   Q 47.66 188.40 25.25 188.49   C 19.19 188.51 10.59 187.58 9.01 194.79   A 1.03 1.01 -10.6 0 1 8.56 195.43   Q 5.46 197.33 1.79 196.63   A 1.00 1.00 0.0 0 1 0.98 195.73   Q 0.64 191.27 3.19 187.67   C 4.75 185.48 7.53 184.37 8.86 181.78   Q 15.45 168.89 31.05 168.75   A 1.01 1.00 4.5 0 0 32.03 167.92   Q 34.50 153.48 47.20 148.51   C 52.55 146.42 59.19 146.76 64.99 147.34   A 0.99 0.99 0.0 0 0 66.02 146.71   C 68.89 139.34 75.75 136.38 82.49 133.19   A 1.00 0.99 78.3 0 0 83.07 132.30   C 83.17 123.72 92.63 116.02 100.38 122.51   C 103.27 124.93 103.87 127.57 105.37 130.83   A 1.04 1.00 -1.1 0 0 105.92 131.34   C 108.18 132.23 109.41 130.84 108.75 128.62   C 103.78 112.04 82.58 112.15 80.35 129.91   Q 80.00 132.73 77.16 132.59   C 67.15 132.07 55.97 131.03 46.90 135.42   C 44.62 136.53 43.59 138.24 42.45 140.36   A 1.03 0.99 -80.4 0 1 41.77 140.86   C 30.15 143.24 25.48 143.75 22.29 156.77   A 1.00 1.00 0.0 0 1 21.25 157.53   Q 10.48 156.78 6.65 166.09   C 5.92 167.86 4.61 168.09 3.81 166.19   C -4.00 147.47 9.40 131.66 28.25 131.45   C 32.23 131.41 35.07 132.77 37.43 128.59   C 39.75 124.46 43.56 121.60 48.16 120.33   C 51.37 119.43 54.81 118.96 57.02 116.16   C 62.04 109.81 65.32 105.02 72.57 98.69   A 0.98 0.97 77.6 0 0 72.87 98.22   Q 75.31 90.10 76.40 81.76   Q 76.49 81.05 77.21 80.58   A 1.00 1.00 0.0 0 1 78.60 80.90   L 81.85 86.15   Q 83.21 88.33 84.84 86.58   Q 89.36 81.73 93.10 76.87   C 95.28 74.04 96.30 70.55 98.05 67.31   Q 99.24 65.12 101.73 65.22   C 105.33 65.36 108.76 65.55 112.35 65.31   C 117.74 64.95 122.02 76.53 123.33 81.48   A 1.01 1.01 0.0 0 0 124.50 82.21   L 127.76 81.56   Q 129.97 81.12 130.63 83.05   L 134.53 94.47   A 1.00 1.00 0.0 0 1 133.60 95.79   Q 122.94 95.99 119.38 105.29   C 117.80 109.43 121.09 111.42 122.81 106.60   C 124.82 100.99 129.34 100.11 134.67 99.26   C 140.21 98.38 145.76 102.75 148.57 107.18   Q 149.93 109.34 151.06 107.05   C 153.58 101.89 161.40 99.96 166.51 99.99   C 172.99 100.02 178.44 108.57 180.08 113.90   A 1.01 1.01 0.0 0 0 180.51 114.46   Q 183.59 116.38 184.04 112.75   Z"></path>
<path fill="#f0a93a" d="   M 70.56 92.44   Q 72.06 93.05 71.53 94.68   A 1.01 1.00 88.8 0 1 70.94 95.30   C 63.08 98.36 58.94 106.16 56.09 113.24   A 1.02 0.98 -87.0 0 1 55.47 113.82   L 44.39 117.40   A 1.01 1.00 78.8 0 1 43.08 116.52   Q 41.49 94.91 50.08 74.99   Q 50.27 74.55 50.50 74.13   Q 51.79 71.78 52.35 74.40   Q 54.30 83.41 62.29 88.43   Q 65.10 90.20 70.56 92.44   Z"></path>
</svg></g>
</g>
</svg>